<?xml version="1.0" encoding="UTF-8"?>
<svg version="1.1" xmlns="http://www.w3.org/2000/svg" width="200" height="203">
<path d="M0 0 C18.67081893 15.58136644 30.37423591 36.81082444 33.73901367 60.94091797 C35.84167153 87.9050895 29.49214031 111.56288221 12.46557617 132.77294922 C-3.83645999 151.63371921 -26.2265142 163.65041675 -51.1809082 165.6015625 C-75.71457687 167.11905871 -99.91136233 160.62601391 -118.64379883 144.33935547 C-119.5074707 143.54787109 -120.37114258 142.75638672 -121.26098633 141.94091797 C-122.1865332 141.10818359 -123.11208008 140.27544922 -124.06567383 139.41748047 C-141.70032235 122.75982079 -151.8251621 99.07720461 -152.54663086 74.85766602 C-152.85180147 50.23594642 -144.06519357 26.51981337 -127.05102539 8.58618164 C-93.03185545 -25.76849357 -38.34637093 -30.76694248 0 0 Z M-89.26098633 30.94091797 C-95.3498079 39.24257516 -97.630009 47.05714214 -97.51098633 57.25341797 C-97.49974731 58.50819946 -97.49974731 58.50819946 -97.48828125 59.78833008 C-97.65768198 68.64530201 -97.65768198 68.64530201 -95.26098633 76.94091797 C-91.72652724 78.61484597 -88.32816067 79.40012074 -84.47973633 80.01123047 C-83.39047852 80.18525391 -82.3012207 80.35927734 -81.17895508 80.53857422 C-80.05102539 80.71259766 -78.9230957 80.88662109 -77.76098633 81.06591797 C-76.63305664 81.24767578 -75.50512695 81.42943359 -74.34301758 81.61669922 C-69.59918873 82.36336104 -65.07361886 83.05409175 -60.26098633 82.94091797 C-60.67696196 81.54487854 -61.09383315 80.14910598 -61.51098633 78.75341797 C-61.78168945 77.83947266 -62.05239258 76.92552734 -62.33129883 75.98388672 C-62.96344383 73.91480705 -63.62615699 71.85487338 -64.31567383 69.80419922 C-67.50800543 60.1456485 -70.13017084 50.58954481 -66.21020508 40.78076172 C-63.87020992 36.24521556 -60.94457313 34.56735085 -56.26098633 32.94091797 C-48.01284957 31.655179 -39.58519887 31.82008263 -31.26098633 31.94091797 C-36.62609275 25.72589369 -47.38153488 23.81282448 -55.26098633 22.94091797 C-66.88331901 22.25936142 -80.60402053 21.82946146 -89.26098633 30.94091797 Z M-61.13598633 46.62841797 C-62.8055511 50.0603011 -62.89660268 53.24862971 -62.26098633 56.94091797 C-59.25948001 62.82848805 -54.40362322 67.39093033 -48.26098633 69.94091797 C-42.33809992 70.69349594 -37.31679082 70.353586 -32.26098633 66.94091797 C-29.75100765 63.17594996 -29.43170572 60.29087171 -30.26098633 55.94091797 C-33.07013972 49.29406289 -37.24785925 45.59015894 -43.80395508 42.74951172 C-50.55470078 40.52788317 -55.89611711 41.91253567 -61.13598633 46.62841797 Z M-26.26098633 44.94091797 C-25.91874023 46.17455078 -25.91874023 46.17455078 -25.56958008 47.43310547 C-23.39486221 55.87842238 -21.93633326 63.1056396 -25.82348633 71.19091797 C-34.10352186 80.53249652 -45.37532048 84.5554352 -57.63598633 85.87841797 C-65.59418391 86.23037757 -73.40715363 85.10355877 -81.26098633 83.94091797 C-81.92888184 83.84343262 -82.59677734 83.74594727 -83.28491211 83.64550781 C-86.94850664 83.10666291 -90.60651006 82.53834539 -94.26098633 81.94091797 C-92.11085938 90.14257231 -88.94633054 97.87737391 -85.64526367 105.6652832 C-84.7564501 107.76412983 -83.87735475 109.86686134 -82.99926758 111.97021484 C-79.57615084 120.17767295 -79.57615084 120.17767295 -75.26098633 127.94091797 C-53.33676192 125.53257514 -32.97299022 115.16809 -18.32739258 98.77685547 C-16.82172649 96.89195678 -15.51858987 94.99805754 -14.26098633 92.94091797 C-13.85106445 92.30412109 -13.44114258 91.66732422 -13.01879883 91.01123047 C-8.78824983 83.27953748 -9.02598574 73.4363052 -10.92114258 65.00341797 C-13.90126222 56.74680943 -19.35506066 50.22401033 -26.26098633 44.94091797 Z " fill="#302F67" transform="translate(159.260986328125,29.05908203125)"/>
<path d="M0 0 C1.57467041 0.28834717 1.57467041 0.28834717 3.18115234 0.58251953 C7.06667263 1.29092993 10.95473313 1.98440658 14.84375 2.67333984 C16.52840393 2.97393878 18.21233566 3.27861427 19.89550781 3.58740234 C22.31137884 4.0298852 24.72944565 4.45776813 27.1484375 4.8828125 C28.28132706 5.09516037 28.28132706 5.09516037 29.43710327 5.3117981 C31.2785968 5.62794784 33.13978446 5.82493642 35 6 C35.66 5.34 36.32 4.68 37 4 C37 4.99 37 5.98 37 7 C39.31 7.33 41.62 7.66 44 8 C44 8.33 44 8.66 44 9 C30.41584309 10.74822193 17.57871008 8.82316465 4.22265625 6.26953125 C1.96379364 5.78825507 1.96379364 5.78825507 0 7 C0 6.01 0 5.02 0 4 C0.66 3.67 1.32 3.34 2 3 C1.34 2.67 0.68 2.34 0 2 C0 1.34 0 0.68 0 0 Z " fill="#8484A5" transform="translate(64,106)"/>
<path d="M0 0 C6.02900687 0.51241107 12.02004643 1.069785 18 2 C18 2.33 18 2.66 18 3 C15.37493198 3.02690844 12.75013827 3.04679404 10.125 3.0625 C9.37863281 3.07087891 8.63226563 3.07925781 7.86328125 3.08789062 C2.2265625 3.11328125 2.2265625 3.11328125 0 2 C0 1.34 0 0.68 0 0 Z " fill="#25245F" transform="translate(80,111)"/>
<path d="M0 0 C6.625 -0.125 6.625 -0.125 10 1 C10 1.66 10 2.32 10 3 C6.7 2.67 3.4 2.34 0 2 C0 1.34 0 0.68 0 0 Z " fill="#262560" transform="translate(69,109)"/>
</svg>
